<svg version="1" xmlns="http://www.w3.org/2000/svg" width="1516" height="1516" viewBox="0 0 1137.000000 1137.000000"><path d="M549.7 3.6c-.1.1-5.4.5-11.7.9-6.3.4-11.7.8-12 1-.3.2-4.3.6-9 1s-8.7.8-9 1c-.3.2-3 .6-6 1-7.9 1-33.2 6.2-42 8.6-4.1 1.2-7.9 2.2-8.5 2.3-.5.2-3 .9-5.5 1.6-2.5.8-4.7 1.4-5 1.5-.3 0-5 1.6-10.5 3.4-20.2 6.7-47.3 18.6-65 28.5-4.4 2.5-8.7 4.8-9.5 5.2-.8.4-6.8 4.1-13.3 8.2-46.3 29.1-86.8 68.9-118.4 116.2-28.8 43.2-51.7 96-65.2 150.7-2.7 10.9-5.2 21.1-5.4 22.8-.3 1.6-1 5.5-1.6 8.5-2.3 11.3-3.1 38.9-1.7 58.5.8 10.7.9 12 3.1 26 11.4 71.4 48.9 137.4 109.3 192.3 4.6 4.2 9 8.2 9.6 8.7.6.6 4.5 3.8 8.6 7.1 54.5 43.7 120.4 76 193 94.4 4.7 1.2 9.4 2.4 10.5 2.6 1.1.2 2.9.6 4 .8 2.9.7 21.5 4.4 25 5.1 1.7.3 5 .8 7.5 1.1 2.4.3 4.7.7 5 .9.3.2 3.7.6 7.5 1 3.9.4 7.8.9 8.9 1.1 1 .2 5.1.6 9 .9 3.9.4 8.7.9 10.6 1.2 1.9.3 18.6.7 37 .8 39.3.4 44.1.8 57 4.6 8.7 2.5 16.6 7.2 18.6 11 4.7 9.1-7.1 28-25.6 41.1-10 7.1-29.2 16.1-39.2 18.4-1 .2-2.7.6-3.8.8-1.1.3-2.4.7-2.8 1-.4.2-2.8.7-5.2 1.1-2.5.3-5.2.8-6 1-6.1 1.6-33.4 2.3-43.5 1.1-27.6-3.2-53.5-11.3-80.4-25.3-14.2-7.4-14.4-7.6-16.4-13.1-1.5-4.4-7.9-12.3-12.8-15.7-4.9-3.5-10.7-5-19.4-5-7.8 0-9.7.4-14.6 2.7-11.5 5.7-18.8 16.4-19.7 28.8-.6 8.4 1 14.6 5.3 21.5 4 6.3 7.9 9.6 15.2 13 3.2 1.4 6.5 3 7.3 3.5 3.5 2.1 16.8 10 21 12.4 12.9 7.4 52.7 24.6 56.8 24.6.5 0 3.8.9 7.3 2 10.5 3.4 29.9 7.1 45.4 8.7 13.1 1.4 50.5.6 55.6-1.1.8-.3 3-.7 4.9-1 12.2-1.9 31.1-7.1 41-11.3 31.2-13.3 53.7-29.8 69.4-50.8 24.2-32.3 26.2-69.1 5.2-96-13.6-17.4-38.6-30-67.6-34-1.9-.3-5.1-.8-7-1.1-1.9-.3-17.7-.7-35-.9-27.5-.2-52.4-1.1-54-2-.3-.2-3.4-.6-7-1-3.6-.3-7.6-.8-9-1-3.4-.5-11.2-1.7-13-2-.8-.2-5.5-1-10.5-1.9-73.4-13.4-144.2-45.6-201-91.3C281 583.6 249.9 545 232.2 508c-7.1-14.9-15.7-38.9-17.6-49-.2-1.4-.9-4.5-1.5-7-1-4.6-2.4-13.1-3.8-23-1.3-9.1-.9-46.8.5-54.5 2.9-15.8 8.7-37.6 15.4-58.5 13-40.2 31.8-77.8 55.3-110.5 22.4-31.2 53.5-61.5 85-82.7 10.9-7.3 23.5-15.2 24.5-15.3.3 0 2.5-1.3 5-2.7 2.5-1.5 9-4.8 14.5-7.3s10.7-5 11.6-5.5c7.6-4 44.4-16.7 54.2-18.6 1-.2 2.7-.6 3.7-.9 1-.3 2.9-.8 4.2-1 1.3-.3 6.8-1.4 12.3-2.5 11-2.1 19.8-3.5 29-4.6 3.3-.3 6.8-.8 7.7-1 3-.5 30.9-1.7 39.8-1.6 9.5 0 32.9 1.1 35.7 1.6 1 .2 4.7.7 8.3 1.1 7 .7 8.3.9 17.8 2.5 15.7 2.6 18.3 3.1 20.4 3.9 1.3.5 2.6.9 3.1.9.7 0 3 .5 8.2 1.7 6.5 1.4 21.6 5.9 32 9.5 109.6 37.8 186.6 119.1 208.3 220.1 5.1 23.7 8.3 57.4 5.8 61.4-3 4.7-4.5 11.7-4.2 19.3.2 6.5.7 8.7 3.6 14 6.3 11.8 16.8 18.4 30 18.9 19.5.6 34.8-13.8 35.6-33.5.2-5.8-1.6-14-3.9-17.5-1-1.5-1.6-6.8-2.1-16.7-.4-8-.9-15.4-1.1-16.5-.2-1.1-.7-4.7-1-8-.3-3.3-.7-6.9-.9-8-.2-1.1-.7-4.2-1-6.9-.4-2.8-1.4-8.2-2.2-12-.9-3.9-1.8-8.2-2-9.6-1.7-9.2-9-33.1-13.9-46-9.3-24.4-23.9-51.9-38.4-72.5-33.8-48.1-77.6-86-135.1-116.8-29.7-15.9-75.4-32.2-109.5-39.1-7.3-1.5-9.1-1.9-14.2-3s-26.8-4.1-36.8-5c-16.2-1.6-22.1-1.9-42.3-2.1-12.2-.1-22.3-.1-22.5.1z"/><path d="M525 251.3c-.3.3-3.6.7-7.5 1.1-11.8 1.1-31.3 5.5-45.4 10.1-47.5 15.9-83.5 47.7-92.2 81.5-6.4 24.7.2 48.1 18.5 65.3 14 13.2 38.6 23.4 63.1 26.2 2.8.3 6.4.9 8 1.2 1.7.4 18.5.7 37.5.8 19 .1 37.7.5 41.5.9 13.2 1.3 22.9 2.4 27.4 3.1 1.3.2 4.5.7 7 1 2.5.4 7.8 1.3 11.6 2 3.9.8 8.6 1.7 10.5 2 12.5 2.2 45 11.4 63.1 17.9 8.5 3.1 10.8 4 17.4 6.7 29.7 12.4 56 26.2 80 42.2 88.6 59.2 143.3 140 151.2 223.7 1.3 13.5.6 53.7-1.1 62.5-.2 1.1-.7 5.1-1.1 9-.4 3.8-.8 7.7-1 8.5-.2 1.2-2.4 12.4-4.1 21.6-2.4 12.8-11 39.9-17.5 55.2-5.2 12.2-19.5 39.3-21.8 41.2-.4.3-1.9 2.5-3.5 5-6.8 10.6-19 25.3-30.6 37-16.6 16.7-17.3 17.3-42 35.8-8.7 6.5-34.7 21.1-51 28.5-16.9 7.8-53.9 20.3-68.5 23.1-1.1.2-5.6 1.2-10 2.1-9.5 2-9.5 2-21 3.9-4.9.8-11.9 1.8-15.5 2.2-3.6.4-7.6.8-9 1-19.9 2.6-83 2.6-96.5 0-1.1-.2-5.3-.7-9.4-1-4.1-.4-7.7-.9-8-1-.3-.2-3.5-.7-7-1-3.6-.4-6.7-.8-7-1-.3-.2-2.8-.7-5.6-1-2.7-.4-5.7-.9-6.5-1.1-.8-.2-3.1-.7-5-1-10.2-1.7-42.3-10.3-57.8-15.5-117.3-39.1-198.5-116.9-220.7-211.5-2.6-11.3-3.4-15.5-4.9-27-1.8-14-1.8-17.5-.2-20 .9-1.4 1.4-2.5 1.2-2.5-.3 0 .2-1.6 1-3.6 2-4.8 1.9-14.8-.2-20.9-4.8-14.4-17.1-23.5-31.9-23.9-11.1-.2-20.2 3.7-27.3 11.9-6.1 6.9-7.2 10.3-7.2 22.6 0 9.7.3 11.9 2.4 16.3 1.7 3.7 2.5 7.7 3 14.6.3 5.2.8 10.4 1 11.6.2 1.2.7 4.5 1.1 7.5.7 5.6 1.7 11.3 4 21.9.3 1.4.7 3.4.9 4.5.9 4 6.1 22.6 7.3 25.5.3.8.7 2 .8 2.5.2.6 2.3 6.3 4.8 12.8 30.7 78.3 95.5 144.4 184.2 187.8 32.9 16.1 74.3 30.9 107.5 38.4 7.2 1.7 36.4 7.5 39.5 7.9 2.2.3 5.6.7 7.5 1 9.7 1.4 19.1 2.6 24.5 3.1 3.3.3 7.4.8 9 1 17.5 2.2 79.3 2.3 93.7 0 1.3-.2 5.5-.6 9.3-1 6.6-.6 11.4-1.2 16-2 1.1-.1 4.3-.6 7-.9 2.8-.4 7.3-1.1 10-1.7 8.5-1.6 9.1-1.7 13.1-2.3 2.1-.4 6.3-1.3 9.4-2.1 3-.8 7-1.7 8.8-2 9.3-1.6 46.4-13.4 59.7-19 1.7-.7 5-2 7.5-3 8.9-3.6 32.7-15.4 42.5-21 68.5-39.3 118.4-95.5 147.3-166 8.3-20.4 16.2-46.5 19.7-65.2.5-2.8 1.1-5.8 2-10.3.3-1.4.8-4.5 1.1-7 .3-2.5.8-5.4 1-6.5.2-1.1.7-4.3 1-7 .3-2.8.7-6.4.9-8 2-14.6 2.8-63.7 1.2-78.5-5.5-52.5-25.8-104.6-59.3-152-7.8-11.1-8.7-12.2-20-25.9-60.3-73.2-156-131.4-257.9-157-12.7-3.1-34-7.5-41.5-8.6-2.5-.3-5.6-.8-7-1-6.9-1.3-17.5-2.5-34-4.1-11.5-1-17.2-1.2-35-1.2-45.3 0-48.9-.3-63.8-4.3-12.5-3.3-20.2-8.2-20.2-12.8 0-9.6 14.4-24.8 33.1-34.9 11.5-6.3 30.8-13.1 41.4-14.7 2.2-.3 6.9-1.1 10.5-1.7 10.8-2 50.3-1.4 57 .8.8.3 3.3.8 5.5 1 2.2.3 7.6 1.5 12 2.5 25.6 6.4 42.5 13.1 73.7 29.6 1.6.8 4.4 3.9 6.5 7 6.3 9.6 16.1 15.1 27.3 15.5 15.2.6 26.9-6.5 33.4-20.2 2.6-5.7 3-7.5 3-14.7-.1-7.2-.5-9.1-3.3-14.7-4.7-9.6-14.9-17.6-24.1-19.1-1.9-.3-4.6-.7-6-.9-1.4-.2-4.9-1.8-7.8-3.5-35.4-20.8-78.1-35.7-120.2-41.6-5.3-.7-52.4-1.8-53-1.2z"/></svg>